<?xml version="1.0" encoding="UTF-8" standalone="no"?>
<svg
   xmlns:dc="http://purl.org/dc/elements/1.1/"
   xmlns:cc="http://creativecommons.org/ns#"
   xmlns:rdf="http://www.w3.org/1999/02/22-rdf-syntax-ns#"
   xmlns:svg="http://www.w3.org/2000/svg"
   xmlns="http://www.w3.org/2000/svg"
   viewBox="0 0 171.412 76.923866"
   height="76.923866"
   width="171.412"
   xml:space="preserve"
   id="svg2"
   version="1.1"><metadata
     id="metadata8"><rdf:RDF><cc:Work
         rdf:about=""><dc:format>image/svg+xml</dc:format><dc:type
           rdf:resource="http://purl.org/dc/dcmitype/StillImage" /></cc:Work></rdf:RDF></metadata><defs
     id="defs6"><clipPath
       id="clipPath18"
       clipPathUnits="userSpaceOnUse"><path
         id="path16"
         d="M 0,57.693 H 128.559 V 0 H 0 Z" /></clipPath><linearGradient
       id="linearGradient114"
       spreadMethod="pad"
       gradientTransform="matrix(52.679928,1.5593202,1.9371393,-52.992069,-5.6459994,18.935028)"
       gradientUnits="userSpaceOnUse"
       y2="0"
       x2="1"
       y1="0"
       x1="0"><stop
         id="stop108"
         offset="0"
         style="stop-opacity:1;stop-color:#9cd75c" /><stop
         id="stop110"
         offset="0.89001228"
         style="stop-opacity:1;stop-color:#29873b" /><stop
         id="stop112"
         offset="1"
         style="stop-opacity:1;stop-color:#29873b" /></linearGradient><linearGradient
       id="linearGradient136"
       spreadMethod="pad"
       gradientTransform="matrix(0.4041071,-9.6524878,-9.595212,-0.3356365,17.109959,26.719686)"
       gradientUnits="userSpaceOnUse"
       y2="0"
       x2="1"
       y1="0"
       x1="0"><stop
         id="stop130"
         offset="0"
         style="stop-opacity:1;stop-color:#9cd75c" /><stop
         id="stop132"
         offset="0.89001228"
         style="stop-opacity:1;stop-color:#29873b" /><stop
         id="stop134"
         offset="1"
         style="stop-opacity:1;stop-color:#29873b" /></linearGradient><linearGradient
       id="linearGradient158"
       spreadMethod="pad"
       gradientTransform="matrix(35.598282,16.488565,16.057774,-37.380707,12.296578,23.832424)"
       gradientUnits="userSpaceOnUse"
       y2="0"
       x2="1"
       y1="0"
       x1="0"><stop
         id="stop152"
         offset="0"
         style="stop-opacity:1;stop-color:#9cd75c" /><stop
         id="stop154"
         offset="0.89001228"
         style="stop-opacity:1;stop-color:#29873b" /><stop
         id="stop156"
         offset="1"
         style="stop-opacity:1;stop-color:#29873b" /></linearGradient><linearGradient
       id="linearGradient180"
       spreadMethod="pad"
       gradientTransform="matrix(8.9377298,-20.514282,-19.535013,-9.1798887,23.888136,44.426674)"
       gradientUnits="userSpaceOnUse"
       y2="0"
       x2="1"
       y1="0"
       x1="0"><stop
         id="stop174"
         offset="0"
         style="stop-opacity:1;stop-color:#9cd75c" /><stop
         id="stop176"
         offset="0.89001228"
         style="stop-opacity:1;stop-color:#29873b" /><stop
         id="stop178"
         offset="1"
         style="stop-opacity:1;stop-color:#29873b" /></linearGradient></defs><g
     transform="matrix(1.3333333,0,0,-1.3333333,0,76.923867)"
     id="g10"><g
       id="g12"><g
         clip-path="url(#clipPath18)"
         id="g14"><g
           transform="translate(128.0586,28.8467)"
           id="g20"><path
             id="path22"
             style="fill:#21776f;fill-opacity:1;fill-rule:nonzero;stroke:none"
             d="m 0,0 c 0,-15.658 -28.555,-28.351 -63.779,-28.351 -35.225,0 -63.78,12.693 -63.78,28.351 0,15.657 28.555,28.351 63.78,28.351 C -28.555,28.351 0,15.657 0,0" /></g><g
           transform="translate(39.999,14.6553)"
           id="g24"><path
             id="path26"
             style="fill:#fcd562;fill-opacity:1;fill-rule:nonzero;stroke:none"
             d="m 0,0 c -0.149,-0.074 -0.446,-0.149 -0.829,-0.149 -0.884,0 -1.549,0.557 -1.549,1.586 0,0.983 0.665,1.648 1.638,1.648 0.391,0 0.637,-0.083 0.745,-0.141 l -0.098,-0.33 c -0.154,0.074 -0.373,0.131 -0.633,0.131 -0.736,0 -1.224,-0.471 -1.224,-1.294 0,-0.767 0.441,-1.262 1.205,-1.262 0.247,0 0.498,0.052 0.661,0.131 z" /></g><g
           transform="translate(43.502,16.1025)"
           id="g28"><path
             id="path30"
             style="fill:#fcd562;fill-opacity:1;fill-rule:nonzero;stroke:none"
             d="m 0,0 c 0,-0.671 0.362,-1.271 1,-1.271 0.643,0 1.005,0.59 1.005,1.302 0,0.624 -0.325,1.277 -1.001,1.277 C 0.334,1.308 0,0.687 0,0 m 2.434,0.051 c 0,-1.079 -0.657,-1.653 -1.457,-1.653 -0.829,0 -1.411,0.643 -1.411,1.591 0,0.996 0.62,1.649 1.457,1.649 0.856,0 1.411,-0.658 1.411,-1.587" /></g><g
           transform="translate(51.8525,15.9307)"
           id="g32"><path
             id="path34"
             style="fill:#fcd562;fill-opacity:1;fill-rule:nonzero;stroke:none"
             d="M 0,0 C -0.023,0.437 -0.052,0.963 -0.046,1.354 H -0.061 C -0.167,0.985 -0.298,0.596 -0.456,0.161 L -1.01,-1.359 H -1.317 L -1.824,0.135 C -1.974,0.576 -2.099,0.98 -2.188,1.354 H -2.196 C -2.206,0.963 -2.229,0.437 -2.257,-0.033 l -0.084,-1.346 h -0.387 l 0.219,3.138 h 0.518 L -1.456,0.24 c 0.13,-0.386 0.236,-0.729 0.316,-1.054 h 0.014 c 0.079,0.316 0.19,0.66 0.33,1.054 l 0.559,1.519 H 0.279 L 0.475,-1.379 H 0.079 Z" /></g><g
           transform="translate(56.1035,16.1396)"
           id="g36"><path
             id="path38"
             style="fill:#fcd562;fill-opacity:1;fill-rule:nonzero;stroke:none"
             d="m 0,0 c 0.088,-0.023 0.199,-0.032 0.334,-0.032 0.489,0 0.787,0.236 0.787,0.67 0,0.414 -0.293,0.614 -0.74,0.614 C 0.204,1.252 0.069,1.237 0,1.22 Z m -0.406,1.513 c 0.196,0.032 0.452,0.059 0.777,0.059 0.4,0 0.693,-0.093 0.88,-0.26 C 1.424,1.162 1.525,0.936 1.525,0.655 1.525,0.371 1.441,0.148 1.283,-0.015 1.07,-0.242 0.721,-0.358 0.325,-0.358 0.204,-0.358 0.092,-0.354 0,-0.33 v -1.258 h -0.406 z" /></g><g
           transform="translate(62.459,15.8555)"
           id="g40"><path
             id="path42"
             style="fill:#fcd562;fill-opacity:1;fill-rule:nonzero;stroke:none"
             d="M 0,0 -0.308,0.902 C -0.377,1.107 -0.424,1.294 -0.471,1.476 H -0.48 C -0.526,1.288 -0.578,1.099 -0.639,0.907 L -0.945,0 Z m -1.029,-0.316 -0.326,-0.988 h -0.418 l 1.065,3.138 h 0.489 L 0.852,-1.304 H 0.418 l -0.335,0.988 z" /></g><g
           transform="translate(66.5195,14.5527)"
           id="g44"><path
             id="path46"
             style="fill:#fcd562;fill-opacity:1;fill-rule:nonzero;stroke:none"
             d="M 0,0 V 3.137 H 0.441 L 1.447,1.55 C 1.681,1.182 1.861,0.852 2.01,0.529 L 2.021,0.534 C 1.982,0.953 1.974,1.336 1.974,1.823 v 1.314 h 0.38 V 0 H 1.945 L 0.949,1.592 C 0.73,1.939 0.521,2.299 0.363,2.639 L 0.35,2.634 C 0.372,2.237 0.381,1.86 0.381,1.34 V 0 Z" /></g><g
           transform="translate(73.0273,14.5527)"
           id="g48"><path
             id="path50"
             style="fill:#fcd562;fill-opacity:1;fill-rule:nonzero;stroke:none"
             d="M 0,0 V 1.331 L -0.991,3.137 H -0.53 L -0.089,2.271 C 0.032,2.033 0.126,1.843 0.225,1.624 h 0.007 c 0.089,0.204 0.196,0.409 0.317,0.647 l 0.452,0.866 h 0.46 L 0.409,1.336 V 0 Z" /></g><g
           transform="translate(81.333,17.6895)"
           id="g52"><path
             id="path54"
             style="fill:#fcd562;fill-opacity:1;fill-rule:nonzero;stroke:none"
             d="m 0,0 h 0.405 v -2.798 h 1.34 v -0.34 H 0 Z" /></g><path
           id="path56"
           style="fill:#fcd562;fill-opacity:1;fill-rule:nonzero;stroke:none"
           d="M 86.684,14.552 H 86.28 v 3.138 h 0.404 z" /><g
           transform="translate(92.7852,15.9307)"
           id="g58"><path
             id="path60"
             style="fill:#fcd562;fill-opacity:1;fill-rule:nonzero;stroke:none"
             d="M 0,0 C -0.022,0.437 -0.051,0.963 -0.047,1.354 H -0.061 C -0.167,0.985 -0.298,0.596 -0.456,0.161 L -1.01,-1.359 H -1.316 L -1.824,0.135 C -1.974,0.576 -2.099,0.98 -2.188,1.354 H -2.196 C -2.206,0.963 -2.229,0.437 -2.257,-0.033 l -0.084,-1.346 h -0.387 l 0.219,3.138 h 0.517 L -1.457,0.24 c 0.131,-0.386 0.237,-0.729 0.316,-1.054 h 0.015 c 0.079,0.316 0.19,0.66 0.33,1.054 l 0.559,1.519 H 0.279 L 0.476,-1.379 H 0.079 Z" /></g><path
           id="path62"
           style="fill:#fcd562;fill-opacity:1;fill-rule:nonzero;stroke:none"
           d="m 97.036,14.552 h -0.405 v 3.138 h 0.405 z" /><g
           transform="translate(101.0889,17.3447)"
           id="g64"><path
             id="path66"
             style="fill:#fcd562;fill-opacity:1;fill-rule:nonzero;stroke:none"
             d="M 0,0 H -0.954 V 0.345 H 1.368 V 0 H 0.41 V -2.792 H 0 Z" /></g><g
           transform="translate(107.1787,16.0234)"
           id="g68"><path
             id="path70"
             style="fill:#fcd562;fill-opacity:1;fill-rule:nonzero;stroke:none"
             d="m 0,0 h -1.219 v -1.132 h 1.36 v -0.34 H -1.624 V 1.666 H 0.07 V 1.325 h -1.289 v -0.99 l 1.219,0 z" /></g><g
           transform="translate(110.999,14.874)"
           id="g72"><path
             id="path74"
             style="fill:#fcd562;fill-opacity:1;fill-rule:nonzero;stroke:none"
             d="m 0,0 c 0.104,-0.02 0.251,-0.023 0.409,-0.023 0.866,0 1.336,0.484 1.336,1.331 C 1.75,2.048 1.331,2.518 0.476,2.518 0.266,2.518 0.106,2.499 0,2.476 Z m -0.405,2.772 c 0.247,0.039 0.54,0.067 0.861,0.067 0.582,0 0.996,-0.136 1.272,-0.392 C 2.006,2.19 2.169,1.828 2.169,1.32 2.169,0.81 2.011,0.391 1.717,0.103 1.424,-0.191 0.939,-0.351 0.33,-0.351 c -0.288,0 -0.53,0.016 -0.735,0.039 z" /></g><g
           transform="translate(41.605,34.0547)"
           id="g76"><path
             id="path78"
             style="fill:#fcd562;fill-opacity:1;fill-rule:nonzero;stroke:none"
             d="m 0,0 v -6.813 c 0,-0.461 0.049,-0.78 0.146,-0.958 0.097,-0.177 0.31,-0.287 0.638,-0.329 v -2.27 h -4.431 v 2.27 c 0.549,0 0.824,0.4 0.824,1.199 v 6.502 c 0,0.432 -0.059,0.745 -0.176,0.94 -0.117,0.195 -0.333,0.325 -0.648,0.391 v 2.199 h 5.436 l 1.98,-7.69 1.888,7.69 h 5.517 V 0.932 C 10.806,0.854 10.576,0.722 10.485,0.532 10.396,0.343 10.35,0.015 10.35,-0.452 v -6.121 c 0,-0.544 0.051,-0.925 0.156,-1.139 0.103,-0.217 0.326,-0.346 0.668,-0.388 v -2.27 H 6.149 v 2.27 c 0.323,0.049 0.53,0.184 0.623,0.409 0.094,0.225 0.141,0.598 0.141,1.118 v 6.36 L 4.221,-10.37 H 2.773 Z" /></g><g
           transform="translate(58.4927,23.6846)"
           id="g80"><path
             id="path82"
             style="fill:#fcd562;fill-opacity:1;fill-rule:nonzero;stroke:none"
             d="M 0,0 V 2.271 C 0.228,2.313 0.399,2.389 0.517,2.497 0.634,2.606 0.708,2.741 0.738,2.9 0.769,3.062 0.783,3.317 0.783,3.673 v 6.244 c 0,0.485 -0.044,0.824 -0.131,1.016 C 0.565,11.125 0.348,11.254 0,11.319 v 2.182 H 10.771 V 9.376 H 7.455 v 0.143 c 0,0.531 -0.134,0.898 -0.401,1.099 C 6.785,10.819 6.31,10.92 5.626,10.92 H 4.32 V 8.099 H 8.5 V 5.828 H 4.32 V 2.581 h 1.547 c 0.616,0 1.035,0.108 1.257,0.324 0.221,0.216 0.331,0.593 0.331,1.131 v 0.488 h 3.316 V 0 Z" /></g><g
           transform="translate(79.1982,26.3896)"
           id="g84"><path
             id="path86"
             style="fill:#fcd562;fill-opacity:1;fill-rule:nonzero;stroke:none"
             d="M 0,0 H 1.034 C 1.464,0 1.817,0.028 2.1,0.085 2.381,0.142 2.596,0.241 2.742,0.388 2.891,0.531 2.991,0.72 3.05,0.949 3.105,1.182 3.135,1.493 3.135,1.89 V 5.961 C 3.135,6.505 3.09,6.933 2.998,7.243 2.908,7.554 2.728,7.781 2.456,7.926 2.186,8.071 1.771,8.145 1.216,8.145 H 1.015 L 0,8.126 Z M 0.764,-2.705 H -4.32 v 2.27 c 0.226,0.042 0.398,0.119 0.515,0.227 0.117,0.109 0.193,0.244 0.223,0.403 0.029,0.16 0.045,0.417 0.045,0.774 v 6.243 c 0,0.485 -0.044,0.824 -0.132,1.017 -0.087,0.191 -0.305,0.32 -0.651,0.385 v 2.182 h 5.084 c 1.507,0 2.681,-0.15 3.525,-0.452 C 5.135,10.042 5.741,9.529 6.113,8.805 6.485,8.081 6.672,7.046 6.672,5.704 V 2.477 C 6.672,1.405 6.577,0.542 6.391,-0.114 6.202,-0.771 5.888,-1.287 5.445,-1.663 5.004,-2.038 4.41,-2.306 3.667,-2.466 2.924,-2.625 1.955,-2.705 0.764,-2.705" /></g><g
           transform="translate(96.0859,27.3574)"
           id="g88"><path
             id="path90"
             style="fill:#fcd562;fill-opacity:1;fill-rule:nonzero;stroke:none"
             d="M 0,0 C 0,-0.354 0.014,-0.611 0.039,-0.771 0.065,-0.932 0.134,-1.065 0.24,-1.176 0.348,-1.285 0.519,-1.359 0.754,-1.401 v -2.272 h -5.085 v 2.272 c 0.233,0.042 0.406,0.116 0.518,0.225 0.11,0.111 0.179,0.244 0.209,0.405 0.032,0.16 0.046,0.417 0.046,0.771 v 6.245 c 0,0.484 -0.044,0.823 -0.13,1.015 -0.086,0.192 -0.301,0.321 -0.643,0.386 V 9.828 H 0.754 V 7.646 C 0.519,7.604 0.348,7.529 0.24,7.42 0.134,7.311 0.065,7.173 0.039,7.007 0.014,6.842 0,6.587 0,6.245 Z" /></g><g
           transform="translate(102.7539,32.6445)"
           id="g92"><path
             id="path94"
             style="fill:#fcd562;fill-opacity:1;fill-rule:nonzero;stroke:none"
             d="m 0,0 c 0,0.798 0.034,1.438 0.104,1.92 0.072,0.482 0.234,0.913 0.489,1.291 0.382,0.568 0.941,0.976 1.681,1.224 0.742,0.249 1.698,0.373 2.871,0.373 1.667,0 3.312,-0.331 4.932,-0.994 V 0 H 6.741 V 0.266 C 6.741,1.478 6.209,2.084 5.145,2.084 4.548,2.084 4.128,1.926 3.883,1.61 3.639,1.293 3.517,0.792 3.517,0.106 v -4.63 c 0,-0.692 0.124,-1.196 0.371,-1.513 0.248,-0.317 0.667,-0.474 1.257,-0.474 0.587,0 1.001,0.159 1.24,0.479 0.237,0.32 0.356,0.822 0.356,1.508 v 0.958 h 3.336 V -8.197 C 9.36,-8.528 8.576,-8.784 7.727,-8.964 6.876,-9.145 6.015,-9.235 5.145,-9.235 4.086,-9.235 3.2,-9.129 2.49,-8.919 1.78,-8.709 1.222,-8.377 0.812,-7.921 0.571,-7.65 0.393,-7.343 0.274,-7.003 0.157,-6.664 0.083,-6.31 0.05,-5.939 0.017,-5.57 0,-5.062 0,-4.417 Z" /></g></g></g><g
       id="g96"><g
         id="g98"><g
           id="g104"><g
             id="g106"><path
               id="path116"
               style="fill:url(#linearGradient114);stroke:none"
               d="m 7.675,25.419 c 4.406,-2.357 4.548,-6.252 9.651,-9.179 v 0 c 4.256,-2.443 8.18,-1.695 9.363,-1.379 v 0 c 0.235,0.064 0.362,0.108 0.362,0.108 v 0 c -2.163,0.454 -4.106,1.732 -9.927,6.344 v 0 c -3.592,2.845 -6.352,3.742 -7.933,4.011 v 0 c -0.525,0.09 -0.919,0.112 -1.175,0.112 v 0 c -0.224,0 -0.341,-0.017 -0.341,-0.017" /></g></g></g></g><g
       id="g118"><g
         id="g120"><g
           id="g126"><g
             id="g128"><path
               id="path138"
               style="fill:url(#linearGradient136);stroke:none"
               d="m 7.675,25.419 c 0,0 0.532,0.074 1.516,-0.095 v 0 c 1.581,-0.269 4.341,-1.166 7.933,-4.011 v 0 c 5.817,-4.61 7.762,-5.889 9.924,-6.343 v 0 h 0.001 c -0.24,0.08 -0.457,0.208 -0.655,0.37 v 0 c -1.676,1.377 -2.186,5.466 -6.914,9.012 v 0 c -2.149,1.612 -4.5,2.089 -6.534,2.089 v 0 c -2.974,0 -5.271,-1.022 -5.271,-1.022" /></g></g></g></g><g
       id="g140"><g
         id="g142"><g
           id="g148"><g
             id="g150"><path
               id="path160"
               style="fill:url(#linearGradient158);stroke:none"
               d="m 25.036,28.622 c -0.513,-6.992 1.233,-11.823 1.825,-13.23 v 0 c 0.113,-0.267 0.184,-0.41 0.19,-0.423 v 0 c -0.32,3.132 0.033,6.412 1.675,16.656 v 0 c 1.014,6.326 0.84,10.488 0.555,12.748 v 0 c -0.166,1.352 -0.374,2.023 -0.388,2.064 v 0 0.001 c -0.405,-7.144 -3.24,-9.435 -3.857,-17.816" /></g></g></g></g><g
       id="g162"><g
         id="g164"><g
           id="g170"><g
             id="g172"><path
               id="path182"
               style="fill:url(#linearGradient180);stroke:none"
               d="m 29.281,44.373 c 0.285,-2.26 0.459,-6.422 -0.555,-12.748 v 0 C 27.084,21.381 26.731,18.101 27.051,14.969 v 0 c -0.013,0.369 0.014,0.723 0.076,1.081 v 0 c 0.51,2.974 3.378,5.865 4.562,14.075 v 0 c 1.314,9.108 -2.719,16.182 -2.796,16.312 v 0 c 0.014,-0.041 0.222,-0.712 0.388,-2.064" /></g></g></g></g></g></svg>